# xmcd CD database file
#
# Track frame offsets:
#	150
#	13509
#	32081
#	46536
#	62152
#	74780
#	90626
#	106990
#	121373
#	138950
#	152701
#	177757
#	202428
#	227224
#	246777
#	261148
#	290713
#	310096
#
# Disc length: 4328 seconds
#
# Revision: 0
# Processed by: cddbd v1.5.2PL0 Copyright (c) Steve Scherf et al.
# Submitted via: CDex 1.51
#
DISCID=0510e612
DTITLE=Kuschel - Kuschel Jazz
DYEAR=2003
DGENRE=Jazz
TTITLE0=1 - Norah Jones - Come Away With Me
TTITLE1=2 - Goerge Michael - Roxanne
TTITLE2=3 - Natalie Cole - What A Difference A Day Made
TTITLE3=4 - Nat King Cole - Unforgettable
TTITLE4=5 - Dinah Washington - Mad About The Boy
TTITLE5=6 - Miles Davis - Time After Time
TTITLE6=7 - Sade - Your Love Is King
TTITLE7=8 - Eva Cassidy - People Get Ready
TTITLE8=9 - Steve Tyrell - As Time Goes By
TTITLE9=10 - Alison Moyet - That Ole Devil Called Love
TTITLE10=11 - Al Jarreau - Your Song
TTITLE11=12 - Oleta Adams - New York State Of Mind
TTITLE12=13 - Luther Vandross - Killing Me Softly
TTITLE13=14 - Kenny G. - Silhouette
TTITLE14=15 - Ella Fitzgerald and Louis Armstrong - They Can't Take That Away From Me
TTITLE15=16 - Jane Monheit - Over The Rainbow
TTITLE16=17 - Stan Getz and Astrud Gilberto - Corcovado
TTITLE17=18 - Robbie Williams - Mr. Bojangles
EXTD=YEAR: 2003
EXTT0=
EXTT1=
EXTT2=
EXTT3=
EXTT4=
EXTT5=
EXTT6=
EXTT7=
EXTT8=
EXTT9=
EXTT10=
EXTT11=
EXTT12=
EXTT13=
EXTT14=
EXTT15=
EXTT16=
EXTT17=
PLAYORDER=
